<svg xmlns="http://www.w3.org/2000/svg" viewBox="0 0 1800 1000" width="1800" height="1000" preserveAspectRatio="xMidYMid slice" role="img" aria-label="Placeholder artwork">
  <defs>
    <radialGradient id="ground28" cx="42%" cy="51%" r="85%">
      <stop offset="0%" stop-color="#D98B3F"/>
      <stop offset="60%" stop-color="#B33A2B"/>
      <stop offset="100%" stop-color="#7A1F18"/>
    </radialGradient>
    <radialGradient id="heart28" cx="50%" cy="50%" r="50%">
      <stop offset="0%" stop-color="#F9F2E7"/>
      <stop offset="70%" stop-color="#D98B3F"/>
      <stop offset="100%" stop-color="#B33A2B" stop-opacity="0.2"/>
    </radialGradient>
    <filter id="grain28" x="0" y="0" width="100%" height="100%">
      <feTurbulence type="fractalNoise" baseFrequency="0.9" numOctaves="3" seed="28" result="noise"/>
      <feColorMatrix type="saturate" values="0" in="noise" result="desaturated"/>
      <feComponentTransfer in="desaturated">
        <feFuncA type="linear" slope="0.16"/>
      </feComponentTransfer>
    </filter>
    <radialGradient id="vignette28" cx="50%" cy="45%" r="75%">
      <stop offset="55%" stop-color="#000000" stop-opacity="0"/>
      <stop offset="100%" stop-color="#000000" stop-opacity="0.28"/>
    </radialGradient>
  </defs>
  <rect width="1800" height="1000" fill="url(#ground28)"/>
  <path d="M752.9,623.5 C716.1,1512.6 393.1,1537.8 393.1,1537.8 C393.1,1537.8 158.3,1314.5 690.7,601.4 Z" fill="#BD5545" fill-opacity="0.72"/>
  <path d="M667.5,577.9 C-81.7,1126.2 -311.2,880.3 -311.2,880.3 C-311.2,880.3 -281.9,545.1 646,515.6 Z" fill="#BD5545" fill-opacity="0.72"/>
  <path d="M649.8,482.7 C-159.1,262.5 -114.2,-41.5 -114.2,-41.5 C-114.2,-41.5 141.9,-211.5 685.2,427 Z" fill="#BD5545" fill-opacity="0.72"/>
  <path d="M713.3,409.6 C411.7,-289.3 655.8,-431.1 655.8,-431.1 C655.8,-431.1 924.5,-344.6 778.9,402.5 Z" fill="#BD5545" fill-opacity="0.72"/>
  <path d="M810.1,413.6 C1209.3,-334.6 1498.6,-222 1498.6,-222 C1498.6,-222 1608.5,68.3 856.5,460.4 Z" fill="#BD5545" fill-opacity="0.72"/>
  <path d="M867.3,491.7 C1735.6,331 1831.3,638.2 1831.3,638.2 C1831.3,638.2 1667,914.9 859.6,557.2 Z" fill="#BD5545" fill-opacity="0.72"/>
  <path d="M841.8,585.2 C1419.1,1086 1260.2,1320.5 1260.2,1320.5 C1260.2,1320.5 979.5,1359.3 785.8,620 Z" fill="#BD5545" fill-opacity="0.72"/>
  <path d="M834.4,592.9 C1236.9,1016.1 1066,1202.4 1066,1202.4 C1066,1202.4 813.3,1205.4 766.5,623.3 Z" fill="#CA7766" fill-opacity="0.66"/>
  <path d="M725.9,619.1 C557,1191.6 305.7,1135.7 305.7,1135.7 C305.7,1135.7 174.3,914.3 665.7,575.4 Z" fill="#CA7766" fill-opacity="0.66"/>
  <path d="M649,538.2 C46.7,683.4 -33,430 -33,430 C-33,430 97,198.4 656.7,464.2 Z" fill="#CA7766" fill-opacity="0.66"/>
  <path d="M680.6,431.2 C329.7,62.1 482.2,-104.1 482.2,-104.1 C482.2,-104.1 707.8,-106.9 748.6,400.8 Z" fill="#CA7766" fill-opacity="0.66"/>
  <path d="M789.1,405 C949,-136.8 1189,-83.5 1189,-83.5 C1189,-83.5 1314.4,127.9 849.4,448.7 Z" fill="#CA7766" fill-opacity="0.66"/>
  <path d="M866,485.9 C1406.7,355.5 1479.5,586.9 1479.5,586.9 C1479.5,586.9 1360.7,798.5 858.3,559.9 Z" fill="#CA7766" fill-opacity="0.66"/>
  <path d="M807.5,611.8 C972.3,940.5 801.6,1031.1 801.6,1031.1 C801.6,1031.1 618,970.6 725,618.8 Z" fill="#D69986" fill-opacity="0.60"/>
  <path d="M678.1,590.4 C449.4,816.1 323.9,694.8 323.9,694.8 C323.9,694.8 324.7,520.2 645.9,514.1 Z" fill="#D69986" fill-opacity="0.60"/>
  <path d="M658.4,460.7 C376.8,314.9 452.7,159.6 452.7,159.6 C452.7,159.6 617.4,106.9 721,406.6 Z" fill="#D69986" fill-opacity="0.60"/>
  <path d="M775.7,401.9 C834.9,43.5 1024.5,70.2 1024.5,70.2 C1024.5,70.2 1136.4,225.7 846.5,444.7 Z" fill="#D69986" fill-opacity="0.60"/>
  <path d="M867.9,495.3 C1158.2,451.3 1186.4,612.2 1186.4,612.2 C1186.4,612.2 1089.8,744 849,575.9 Z" fill="#D69986" fill-opacity="0.60"/>
  <circle cx="757.5" cy="512" r="189.7" fill="url(#heart28)"/>
  <line x1="861.7" y1="505.6" x2="1037.7" y2="494.6" stroke="#C89F8E" stroke-width="8.9" stroke-linecap="round" stroke-opacity="0.55"/>
  <line x1="860" y1="531.7" x2="973.7" y2="553.4" stroke="#C89F8E" stroke-width="8.9" stroke-linecap="round" stroke-opacity="0.55"/>
  <line x1="849.3" y1="561.6" x2="991.2" y2="638.2" stroke="#C89F8E" stroke-width="8.9" stroke-linecap="round" stroke-opacity="0.55"/>
  <line x1="836.3" y1="580.5" x2="923.9" y2="656.7" stroke="#C89F8E" stroke-width="8.9" stroke-linecap="round" stroke-opacity="0.55"/>
  <line x1="824.4" y1="592.1" x2="937.1" y2="727.1" stroke="#C89F8E" stroke-width="8.9" stroke-linecap="round" stroke-opacity="0.55"/>
  <line x1="793.7" y1="609.9" x2="838.1" y2="730.2" stroke="#C89F8E" stroke-width="8.9" stroke-linecap="round" stroke-opacity="0.55"/>
  <line x1="770.5" y1="615.6" x2="793.6" y2="799.5" stroke="#C89F8E" stroke-width="8.9" stroke-linecap="round" stroke-opacity="0.55"/>
  <line x1="754.8" y1="616.3" x2="750.9" y2="768.9" stroke="#C89F8E" stroke-width="8.9" stroke-linecap="round" stroke-opacity="0.55"/>
  <line x1="718.5" y1="608.8" x2="672.6" y2="722.9" stroke="#C89F8E" stroke-width="8.9" stroke-linecap="round" stroke-opacity="0.55"/>
  <line x1="699.6" y1="598.8" x2="618.1" y2="721.1" stroke="#C89F8E" stroke-width="8.9" stroke-linecap="round" stroke-opacity="0.55"/>
  <line x1="682.9" y1="585" x2="561.5" y2="703.8" stroke="#C89F8E" stroke-width="8.9" stroke-linecap="round" stroke-opacity="0.55"/>
  <line x1="662.6" y1="555.5" x2="554.6" y2="604.9" stroke="#C89F8E" stroke-width="8.9" stroke-linecap="round" stroke-opacity="0.55"/>
  <line x1="657.6" y1="542.1" x2="545.6" y2="575.8" stroke="#C89F8E" stroke-width="8.9" stroke-linecap="round" stroke-opacity="0.55"/>
  <line x1="653.5" y1="520.6" x2="514.1" y2="532.2" stroke="#C89F8E" stroke-width="8.9" stroke-linecap="round" stroke-opacity="0.55"/>
  <line x1="654.6" y1="494.6" x2="506.7" y2="469.6" stroke="#C89F8E" stroke-width="8.9" stroke-linecap="round" stroke-opacity="0.55"/>
  <line x1="666.7" y1="460.6" x2="555.9" y2="397.8" stroke="#C89F8E" stroke-width="8.9" stroke-linecap="round" stroke-opacity="0.55"/>
  <line x1="681.2" y1="440.9" x2="593.3" y2="358.9" stroke="#C89F8E" stroke-width="8.9" stroke-linecap="round" stroke-opacity="0.55"/>
  <line x1="697.9" y1="426.4" x2="603.6" y2="290.9" stroke="#C89F8E" stroke-width="8.9" stroke-linecap="round" stroke-opacity="0.55"/>
  <line x1="717.7" y1="415.6" x2="658.8" y2="272.5" stroke="#C89F8E" stroke-width="8.9" stroke-linecap="round" stroke-opacity="0.55"/>
  <line x1="744.2" y1="408.5" x2="724" y2="251.6" stroke="#C89F8E" stroke-width="8.9" stroke-linecap="round" stroke-opacity="0.55"/>
  <line x1="779.2" y1="410" x2="814.2" y2="245.7" stroke="#C89F8E" stroke-width="8.9" stroke-linecap="round" stroke-opacity="0.55"/>
  <line x1="799.5" y1="416.5" x2="855" y2="290.3" stroke="#C89F8E" stroke-width="8.9" stroke-linecap="round" stroke-opacity="0.55"/>
  <line x1="818.9" y1="427.7" x2="934" y2="269.7" stroke="#C89F8E" stroke-width="8.9" stroke-linecap="round" stroke-opacity="0.55"/>
  <line x1="832.5" y1="439.5" x2="921.8" y2="353.2" stroke="#C89F8E" stroke-width="8.9" stroke-linecap="round" stroke-opacity="0.55"/>
  <line x1="853.8" y1="471.8" x2="991.9" y2="414.2" stroke="#C89F8E" stroke-width="8.9" stroke-linecap="round" stroke-opacity="0.55"/>
  <line x1="860.2" y1="493.6" x2="1002.5" y2="468.1" stroke="#C89F8E" stroke-width="8.9" stroke-linecap="round" stroke-opacity="0.55"/>
  <rect width="1800" height="1000" filter="url(#grain28)" opacity="0.5"/>
  <rect width="1800" height="1000" fill="url(#vignette28)"/>
</svg>
