<svg xmlns="http://www.w3.org/2000/svg" viewBox="0 0 1800 1000" width="1800" height="1000" preserveAspectRatio="xMidYMid slice" role="img" aria-label="Placeholder artwork">
  <defs>
    <radialGradient id="ground49" cx="56%" cy="45%" r="85%">
      <stop offset="0%" stop-color="#D98B3F"/>
      <stop offset="60%" stop-color="#B33A2B"/>
      <stop offset="100%" stop-color="#7A1F18"/>
    </radialGradient>
    <radialGradient id="heart49" cx="50%" cy="50%" r="50%">
      <stop offset="0%" stop-color="#F9F2E7"/>
      <stop offset="70%" stop-color="#D98B3F"/>
      <stop offset="100%" stop-color="#B33A2B" stop-opacity="0.2"/>
    </radialGradient>
    <filter id="grain49" x="0" y="0" width="100%" height="100%">
      <feTurbulence type="fractalNoise" baseFrequency="0.9" numOctaves="3" seed="49" result="noise"/>
      <feColorMatrix type="saturate" values="0" in="noise" result="desaturated"/>
      <feComponentTransfer in="desaturated">
        <feFuncA type="linear" slope="0.16"/>
      </feComponentTransfer>
    </filter>
    <radialGradient id="vignette49" cx="50%" cy="45%" r="75%">
      <stop offset="55%" stop-color="#000000" stop-opacity="0"/>
      <stop offset="100%" stop-color="#000000" stop-opacity="0.28"/>
    </radialGradient>
  </defs>
  <rect width="1800" height="1000" fill="url(#ground49)"/>
  <path d="M954.8,547.9 C542.2,1187.4 288.5,1063.6 288.5,1063.6 C288.5,1063.6 210.8,792.2 912.4,497.4 Z" fill="#BD5545" fill-opacity="0.72"/>
  <path d="M904.2,465.3 C63.8,549.9 -3.5,247.9 -3.5,247.9 C-3.5,247.9 175.9,-4.1 917.3,400.7 Z" fill="#BD5545" fill-opacity="0.72"/>
  <path d="M937.3,374.3 C334.6,-242.9 532.4,-488.3 532.4,-488.3 C532.4,-488.3 847.1,-505.5 996,344.2 Z" fill="#BD5545" fill-opacity="0.72"/>
  <path d="M1029.1,343.4 C1125.5,-429.3 1413.5,-427.8 1413.5,-427.8 C1413.5,-427.8 1605.1,-212.7 1089.2,370.6 Z" fill="#BD5545" fill-opacity="0.72"/>
  <path d="M1110.5,395.9 C1804.6,-28.7 1990,206.2 1990,206.2 C1990,206.2 1939.4,501.3 1126.7,459.8 Z" fill="#BD5545" fill-opacity="0.72"/>
  <path d="M1120.2,492.3 C1822.6,747.5 1759.4,1018.2 1759.4,1018.2 C1759.4,1018.2 1516,1152.2 1080.3,544.8 Z" fill="#BD5545" fill-opacity="0.72"/>
  <path d="M1050.9,559.9 C1308.8,1326.3 1039.9,1454.1 1039.9,1454.1 C1039.9,1454.1 765.1,1339.7 984.9,561.6 Z" fill="#BD5545" fill-opacity="0.72"/>
  <path d="M1126.1,441.1 C1670.1,376.7 1714.3,612.1 1714.3,612.1 C1714.3,612.1 1573.1,805.7 1109.7,513.7 Z" fill="#CA7766" fill-opacity="0.66"/>
  <path d="M1082,543.6 C1429.4,1008.9 1238.6,1172.7 1238.6,1172.7 C1238.6,1172.7 988.5,1145.9 1011,565.7 Z" fill="#CA7766" fill-opacity="0.66"/>
  <path d="M971.2,556.7 C725.8,1127.7 474.5,1039.4 474.5,1039.4 C474.5,1039.4 366.7,795.9 916.5,506.2 Z" fill="#CA7766" fill-opacity="0.66"/>
  <path d="M904.4,467.3 C373.6,530.1 330.2,299.3 330.2,299.3 C330.2,299.3 468.6,109.7 920.9,394.7 Z" fill="#CA7766" fill-opacity="0.66"/>
  <path d="M948.5,364.7 C626.1,-67.1 805.4,-221 805.4,-221 C805.4,-221 1040.4,-195.8 1019.6,342.6 Z" fill="#CA7766" fill-opacity="0.66"/>
  <path d="M1059.3,351.6 C1273.1,-145.8 1497,-67.2 1497,-67.2 C1497,-67.2 1593,149.7 1114,402.1 Z" fill="#CA7766" fill-opacity="0.66"/>
  <path d="M1046.6,561.3 C1127.5,837.8 973.9,886.7 973.9,886.7 C973.9,886.7 832.3,809.6 964.2,553.4 Z" fill="#D69986" fill-opacity="0.60"/>
  <path d="M923.1,517.1 C659.3,697 558.1,555.8 558.1,555.8 C558.1,555.8 590,385 905.1,436.2 Z" fill="#D69986" fill-opacity="0.60"/>
  <path d="M927,385.9 C633.2,158.9 748.6,2.1 748.6,2.1 C748.6,2.1 941.7,-23.1 998.3,343.9 Z" fill="#D69986" fill-opacity="0.60"/>
  <path d="M1052.9,349.1 C1163.1,41.2 1331,96.9 1331,96.9 C1331,96.9 1406.9,256.7 1114.9,403.9 Z" fill="#D69986" fill-opacity="0.60"/>
  <path d="M1126.8,457.5 C1456.7,467.2 1455.6,645.3 1455.6,645.3 C1455.6,645.3 1326.2,767.7 1093.9,533.4 Z" fill="#D69986" fill-opacity="0.60"/>
  <circle cx="1015.3" cy="454.2" r="189.7" fill="url(#heart49)"/>
  <line x1="1119.6" y1="454.4" x2="1302.5" y2="454.8" stroke="#C89F8E" stroke-width="8.9" stroke-linecap="round" stroke-opacity="0.55"/>
  <line x1="1114.6" y1="486.1" x2="1245.7" y2="528.2" stroke="#C89F8E" stroke-width="8.9" stroke-linecap="round" stroke-opacity="0.55"/>
  <line x1="1108.5" y1="500.9" x2="1269.3" y2="581.6" stroke="#C89F8E" stroke-width="8.9" stroke-linecap="round" stroke-opacity="0.55"/>
  <line x1="1099" y1="516.4" x2="1257.3" y2="634" stroke="#C89F8E" stroke-width="8.9" stroke-linecap="round" stroke-opacity="0.55"/>
  <line x1="1079.3" y1="536.5" x2="1188.2" y2="676.6" stroke="#C89F8E" stroke-width="8.9" stroke-linecap="round" stroke-opacity="0.55"/>
  <line x1="1045.2" y1="554.1" x2="1078.3" y2="664.5" stroke="#C89F8E" stroke-width="8.9" stroke-linecap="round" stroke-opacity="0.55"/>
  <line x1="1031" y1="557.3" x2="1057.3" y2="729.3" stroke="#C89F8E" stroke-width="8.9" stroke-linecap="round" stroke-opacity="0.55"/>
  <line x1="992.5" y1="556" x2="961.6" y2="693.9" stroke="#C89F8E" stroke-width="8.9" stroke-linecap="round" stroke-opacity="0.55"/>
  <line x1="977.1" y1="551.3" x2="916.8" y2="704.5" stroke="#C89F8E" stroke-width="8.9" stroke-linecap="round" stroke-opacity="0.55"/>
  <line x1="949.8" y1="535.4" x2="862.8" y2="643.5" stroke="#C89F8E" stroke-width="8.9" stroke-linecap="round" stroke-opacity="0.55"/>
  <line x1="934.2" y1="519.8" x2="843.6" y2="593.2" stroke="#C89F8E" stroke-width="8.9" stroke-linecap="round" stroke-opacity="0.55"/>
  <line x1="924.4" y1="505.5" x2="766.3" y2="594.8" stroke="#C89F8E" stroke-width="8.9" stroke-linecap="round" stroke-opacity="0.55"/>
  <line x1="916.9" y1="489" x2="756.2" y2="546" stroke="#C89F8E" stroke-width="8.9" stroke-linecap="round" stroke-opacity="0.55"/>
  <line x1="911.4" y1="464.2" x2="732.4" y2="481.6" stroke="#C89F8E" stroke-width="8.9" stroke-linecap="round" stroke-opacity="0.55"/>
  <line x1="912.6" y1="435.4" x2="770.3" y2="409.5" stroke="#C89F8E" stroke-width="8.9" stroke-linecap="round" stroke-opacity="0.55"/>
  <line x1="919.7" y1="412.2" x2="737.7" y2="332.2" stroke="#C89F8E" stroke-width="8.9" stroke-linecap="round" stroke-opacity="0.55"/>
  <line x1="943.3" y1="378.6" x2="834.7" y2="264.6" stroke="#C89F8E" stroke-width="8.9" stroke-linecap="round" stroke-opacity="0.55"/>
  <line x1="960.7" y1="365.2" x2="897.9" y2="263.1" stroke="#C89F8E" stroke-width="8.9" stroke-linecap="round" stroke-opacity="0.55"/>
  <line x1="986.7" y1="353.8" x2="934.6" y2="170.3" stroke="#C89F8E" stroke-width="8.9" stroke-linecap="round" stroke-opacity="0.55"/>
  <line x1="1012.3" y1="349.9" x2="1008.9" y2="231" stroke="#C89F8E" stroke-width="8.9" stroke-linecap="round" stroke-opacity="0.55"/>
  <line x1="1024.3" y1="350.2" x2="1039.8" y2="170.8" stroke="#C89F8E" stroke-width="8.9" stroke-linecap="round" stroke-opacity="0.55"/>
  <line x1="1044.2" y1="353.9" x2="1094.1" y2="181" stroke="#C89F8E" stroke-width="8.9" stroke-linecap="round" stroke-opacity="0.55"/>
  <line x1="1078.4" y1="371.1" x2="1153.9" y2="271.8" stroke="#C89F8E" stroke-width="8.9" stroke-linecap="round" stroke-opacity="0.55"/>
  <line x1="1088.2" y1="379.5" x2="1196.4" y2="268.7" stroke="#C89F8E" stroke-width="8.9" stroke-linecap="round" stroke-opacity="0.55"/>
  <line x1="1107.3" y1="404.9" x2="1240.8" y2="333.4" stroke="#C89F8E" stroke-width="8.9" stroke-linecap="round" stroke-opacity="0.55"/>
  <line x1="1113.6" y1="419.2" x2="1244.4" y2="372.8" stroke="#C89F8E" stroke-width="8.9" stroke-linecap="round" stroke-opacity="0.55"/>
  <rect width="1800" height="1000" filter="url(#grain49)" opacity="0.5"/>
  <rect width="1800" height="1000" fill="url(#vignette49)"/>
</svg>
