<svg xmlns="http://www.w3.org/2000/svg" viewBox="0 0 1250 1000" width="1250" height="1000" preserveAspectRatio="xMidYMid slice" role="img" aria-label="Placeholder artwork">
  <defs>
    <linearGradient id="sky40" x1="0%" y1="0%" x2="0%" y2="100%">
      <stop offset="0%" stop-color="#2C2740"/>
      <stop offset="55%" stop-color="#7C5A7A"/>
      <stop offset="100%" stop-color="#D98B6A"/>
    </linearGradient>
    <linearGradient id="water40" x1="0%" y1="0%" x2="0%" y2="100%">
      <stop offset="0%" stop-color="#E1A68A"/>
      <stop offset="100%" stop-color="#2C2740"/>
    </linearGradient>
    <radialGradient id="sun40" cx="50%" cy="50%" r="50%">
      <stop offset="0%" stop-color="#FAF2EA"/>
      <stop offset="100%" stop-color="#D98B6A" stop-opacity="0"/>
    </radialGradient>
    <filter id="grain40" x="0" y="0" width="100%" height="100%">
      <feTurbulence type="fractalNoise" baseFrequency="0.9" numOctaves="3" seed="40" result="noise"/>
      <feColorMatrix type="saturate" values="0" in="noise" result="desaturated"/>
      <feComponentTransfer in="desaturated">
        <feFuncA type="linear" slope="0.16"/>
      </feComponentTransfer>
    </filter>
    <radialGradient id="vignette40" cx="50%" cy="45%" r="75%">
      <stop offset="55%" stop-color="#000000" stop-opacity="0"/>
      <stop offset="100%" stop-color="#000000" stop-opacity="0.28"/>
    </radialGradient>
  </defs>
  <rect width="1250" height="1000" fill="url(#sky40)"/>
  <circle cx="633.4" cy="540.2" r="177.3" fill="url(#sun40)" opacity="0.75"/>
  <circle cx="633.4" cy="540.2" r="55.4" fill="#F8ECE2" opacity="0.9"/>
  <rect y="551.3" width="1250" height="448.7" fill="url(#water40)"/>
  <rect x="-122.6" y="239" width="1099.6" height="29.5" rx="14.8" fill="#D2B9B1" fill-opacity="0.17"/>
  <rect x="543.7" y="119.1" width="531.9" height="17.9" rx="8.9" fill="#B79BA0" fill-opacity="0.23"/>
  <rect x="543" y="551.3" width="75.8" height="5.4" rx="2.7" fill="#F6E8DC" fill-opacity="0.38"/>
  <rect x="494.4" y="566.3" width="172.8" height="6.2" rx="3.1" fill="#F6E8DC" fill-opacity="0.36"/>
  <rect x="582.6" y="583.8" width="166.4" height="7.1" rx="3.6" fill="#F6E8DC" fill-opacity="0.34"/>
  <rect x="585.6" y="602.4" width="146.9" height="8" rx="4" fill="#F6E8DC" fill-opacity="0.33"/>
  <rect x="437.1" y="621.7" width="269" height="8.8" rx="4.4" fill="#F6E8DC" fill-opacity="0.31"/>
  <rect x="448.8" y="641.7" width="348.2" height="9.7" rx="4.8" fill="#F6E8DC" fill-opacity="0.29"/>
  <rect x="529.6" y="662.1" width="195.2" height="10.6" rx="5.3" fill="#F6E8DC" fill-opacity="0.27"/>
  <rect x="628.8" y="682.9" width="165.9" height="11.4" rx="5.7" fill="#F6E8DC" fill-opacity="0.25"/>
  <rect x="444.8" y="704" width="222.7" height="12.3" rx="6.1" fill="#F6E8DC" fill-opacity="0.24"/>
  <rect x="541.9" y="725.5" width="320.2" height="13.1" rx="6.6" fill="#F6E8DC" fill-opacity="0.22"/>
  <rect x="486.1" y="747.2" width="354.8" height="14" rx="7" fill="#F6E8DC" fill-opacity="0.20"/>
  <rect x="390.1" y="769.3" width="376.2" height="14.9" rx="7.4" fill="#F6E8DC" fill-opacity="0.18"/>
  <rect x="411.9" y="791.5" width="273.4" height="15.7" rx="7.9" fill="#F6E8DC" fill-opacity="0.16"/>
  <rect x="408.7" y="814" width="484.3" height="16.6" rx="8.3" fill="#F6E8DC" fill-opacity="0.15"/>
  <rect x="351.7" y="836.6" width="491.8" height="17.4" rx="8.7" fill="#F6E8DC" fill-opacity="0.13"/>
  <rect x="409.7" y="859.5" width="313.6" height="18.3" rx="9.2" fill="#F6E8DC" fill-opacity="0.11"/>
  <rect x="344.5" y="882.5" width="685.5" height="19.2" rx="9.6" fill="#F6E8DC" fill-opacity="0.09"/>
  <rect x="272.2" y="905.7" width="652" height="20" rx="10" fill="#F6E8DC" fill-opacity="0.07"/>
  <rect x="409.2" y="929" width="360.5" height="20.9" rx="10.4" fill="#F6E8DC" fill-opacity="0.06"/>
  <rect x="208.4" y="952.6" width="815" height="21.8" rx="10.9" fill="#F6E8DC" fill-opacity="0.05"/>
  <rect x="339.9" y="976.2" width="680.2" height="22.6" rx="11.3" fill="#F6E8DC" fill-opacity="0.05"/>
  <rect width="1250" height="1000" filter="url(#grain40)" opacity="0.5"/>
  <rect width="1250" height="1000" fill="url(#vignette40)"/>
</svg>
