<svg xmlns="http://www.w3.org/2000/svg" viewBox="0 0 1100 1400" width="1100" height="1400" preserveAspectRatio="xMidYMid slice" role="img" aria-label="Placeholder artwork">
  <defs>
    <radialGradient id="ground46" cx="46%" cy="50%" r="85%">
      <stop offset="0%" stop-color="#8C6FA8"/>
      <stop offset="60%" stop-color="#5B3F7A"/>
      <stop offset="100%" stop-color="#2E2340"/>
    </radialGradient>
    <radialGradient id="heart46" cx="50%" cy="50%" r="50%">
      <stop offset="0%" stop-color="#F6F3F9"/>
      <stop offset="70%" stop-color="#8C6FA8"/>
      <stop offset="100%" stop-color="#5B3F7A" stop-opacity="0.2"/>
    </radialGradient>
    <filter id="grain46" x="0" y="0" width="100%" height="100%">
      <feTurbulence type="fractalNoise" baseFrequency="0.9" numOctaves="3" seed="46" result="noise"/>
      <feColorMatrix type="saturate" values="0" in="noise" result="desaturated"/>
      <feComponentTransfer in="desaturated">
        <feFuncA type="linear" slope="0.16"/>
      </feComponentTransfer>
    </filter>
    <radialGradient id="vignette46" cx="50%" cy="45%" r="75%">
      <stop offset="55%" stop-color="#000000" stop-opacity="0"/>
      <stop offset="100%" stop-color="#000000" stop-opacity="0.28"/>
    </radialGradient>
  </defs>
  <rect width="1100" height="1400" fill="url(#ground46)"/>
  <path d="M535,775.2 C772.4,1427.8 546.8,1541.8 546.8,1541.8 C546.8,1541.8 311.2,1450.4 483.7,777.8 Z" fill="#725A8D" fill-opacity="0.72"/>
  <path d="M460,767.7 C148.9,1276.6 -52,1184.5 -52,1184.5 C-52,1184.5 -118,973.6 426.1,729.2 Z" fill="#725A8D" fill-opacity="0.72"/>
  <path d="M419.2,704.5 C-200.1,781.9 -255.6,558.7 -255.6,558.7 C-255.6,558.7 -126.7,368.2 428.1,653.9 Z" fill="#725A8D" fill-opacity="0.72"/>
  <path d="M443.2,633.1 C-15.1,185.9 128,-0.8 128,-0.8 C128,-0.8 362.5,-19.3 488.3,608.6 Z" fill="#725A8D" fill-opacity="0.72"/>
  <path d="M514,607.3 C575.9,-10.2 804.7,-14.5 804.7,-14.5 C804.7,-14.5 961,152.6 561.2,627.3 Z" fill="#725A8D" fill-opacity="0.72"/>
  <path d="M578.2,646.6 C1190.3,251.4 1358.7,454.5 1358.7,454.5 C1358.7,454.5 1320.4,715.5 592.1,696 Z" fill="#725A8D" fill-opacity="0.72"/>
  <path d="M587.6,721.3 C1220.8,934.2 1171,1173.3 1171,1173.3 C1171,1173.3 960,1296.2 557.6,763 Z" fill="#725A8D" fill-opacity="0.72"/>
  <path d="M587.4,665.4 C982.6,529.4 1053.9,698.4 1053.9,698.4 C1053.9,698.4 979.7,866.1 586.9,723.3 Z" fill="#907BA5" fill-opacity="0.66"/>
  <path d="M570.8,750.6 C919.5,1053.9 799.2,1213 799.2,1213 C799.2,1213 600.9,1234.2 520.4,779.1 Z" fill="#907BA5" fill-opacity="0.66"/>
  <path d="M488.7,778.9 C412.4,1170.9 237.2,1149 237.2,1149 C237.2,1149 133,1006.4 438.8,749.5 Z" fill="#907BA5" fill-opacity="0.66"/>
  <path d="M423.2,721.9 C-33.9,879.2 -114.5,688.3 -114.5,688.3 C-114.5,688.3 -30.6,498.9 423.7,664 Z" fill="#907BA5" fill-opacity="0.66"/>
  <path d="M439.8,636.7 C92.2,334.4 212.2,175.8 212.2,175.8 C212.2,175.8 410,154.6 490.2,608.2 Z" fill="#907BA5" fill-opacity="0.66"/>
  <path d="M521.9,608.5 C605.4,179.4 794.3,203 794.3,203 C794.3,203 906.5,356.7 571.8,637.8 Z" fill="#907BA5" fill-opacity="0.66"/>
  <path d="M427.8,732.7 C213.9,840.6 151.9,724.5 151.9,724.5 C151.9,724.5 192.9,599.4 422.2,668.6 Z" fill="#AD9DBD" fill-opacity="0.60"/>
  <path d="M444.2,632 C285.4,471.9 372.8,381.1 372.8,381.1 C372.8,381.1 498.7,381.4 503.5,606.9 Z" fill="#AD9DBD" fill-opacity="0.60"/>
  <path d="M545.1,616.5 C665.9,382 793,443.7 793,443.7 C793,443.7 836.4,578.3 587.3,665.1 Z" fill="#AD9DBD" fill-opacity="0.60"/>
  <path d="M591,707.6 C865.1,752.3 844.9,897.9 844.9,897.9 C844.9,897.9 725.7,984 557.8,762.8 Z" fill="#AD9DBD" fill-opacity="0.60"/>
  <path d="M518.5,779.5 C559.2,1043.9 418.5,1068.9 418.5,1068.9 C418.5,1068.9 303.1,984.7 455.8,765 Z" fill="#AD9DBD" fill-opacity="0.60"/>
  <circle cx="505.3" cy="693.7" r="147.6" fill="url(#heart46)"/>
  <line x1="586.5" y1="695.1" x2="706.9" y2="697.1" stroke="#AAA2B4" stroke-width="6.9" stroke-linecap="round" stroke-opacity="0.55"/>
  <line x1="585.2" y1="707.7" x2="715.9" y2="730.6" stroke="#AAA2B4" stroke-width="6.9" stroke-linecap="round" stroke-opacity="0.55"/>
  <line x1="579.7" y1="726.1" x2="678.3" y2="769.1" stroke="#AAA2B4" stroke-width="6.9" stroke-linecap="round" stroke-opacity="0.55"/>
  <line x1="570.8" y1="741.6" x2="694.4" y2="832.1" stroke="#AAA2B4" stroke-width="6.9" stroke-linecap="round" stroke-opacity="0.55"/>
  <line x1="546.8" y1="763.4" x2="593.7" y2="842.5" stroke="#AAA2B4" stroke-width="6.9" stroke-linecap="round" stroke-opacity="0.55"/>
  <line x1="530.6" y1="770.8" x2="575.3" y2="907.4" stroke="#AAA2B4" stroke-width="6.9" stroke-linecap="round" stroke-opacity="0.55"/>
  <line x1="516" y1="774.1" x2="529.1" y2="873" stroke="#AAA2B4" stroke-width="6.9" stroke-linecap="round" stroke-opacity="0.55"/>
  <line x1="494.4" y1="774.1" x2="478" y2="896.1" stroke="#AAA2B4" stroke-width="6.9" stroke-linecap="round" stroke-opacity="0.55"/>
  <line x1="470.5" y1="767" x2="421.9" y2="869.1" stroke="#AAA2B4" stroke-width="6.9" stroke-linecap="round" stroke-opacity="0.55"/>
  <line x1="455.8" y1="758" x2="390.3" y2="843.1" stroke="#AAA2B4" stroke-width="6.9" stroke-linecap="round" stroke-opacity="0.55"/>
  <line x1="439.6" y1="741.4" x2="318.6" y2="829.3" stroke="#AAA2B4" stroke-width="6.9" stroke-linecap="round" stroke-opacity="0.55"/>
  <line x1="435.7" y1="735.5" x2="332.5" y2="797.5" stroke="#AAA2B4" stroke-width="6.9" stroke-linecap="round" stroke-opacity="0.55"/>
  <line x1="425.3" y1="707.5" x2="287.1" y2="731.3" stroke="#AAA2B4" stroke-width="6.9" stroke-linecap="round" stroke-opacity="0.55"/>
  <line x1="424.2" y1="693.7" x2="304.3" y2="693.6" stroke="#AAA2B4" stroke-width="6.9" stroke-linecap="round" stroke-opacity="0.55"/>
  <line x1="427.2" y1="671.5" x2="324.5" y2="642.3" stroke="#AAA2B4" stroke-width="6.9" stroke-linecap="round" stroke-opacity="0.55"/>
  <line x1="432.7" y1="657.4" x2="299.7" y2="590.8" stroke="#AAA2B4" stroke-width="6.9" stroke-linecap="round" stroke-opacity="0.55"/>
  <line x1="440.6" y1="644.7" x2="369.4" y2="590.7" stroke="#AAA2B4" stroke-width="6.9" stroke-linecap="round" stroke-opacity="0.55"/>
  <line x1="460.3" y1="626.2" x2="381.9" y2="508.6" stroke="#AAA2B4" stroke-width="6.9" stroke-linecap="round" stroke-opacity="0.55"/>
  <line x1="483.8" y1="615.4" x2="456.7" y2="516.7" stroke="#AAA2B4" stroke-width="6.9" stroke-linecap="round" stroke-opacity="0.55"/>
  <line x1="495.2" y1="613.1" x2="479.9" y2="491.3" stroke="#AAA2B4" stroke-width="6.9" stroke-linecap="round" stroke-opacity="0.55"/>
  <line x1="518.5" y1="613.6" x2="542.3" y2="468.8" stroke="#AAA2B4" stroke-width="6.9" stroke-linecap="round" stroke-opacity="0.55"/>
  <line x1="530.9" y1="616.6" x2="576.8" y2="478.2" stroke="#AAA2B4" stroke-width="6.9" stroke-linecap="round" stroke-opacity="0.55"/>
  <line x1="555.7" y1="630" x2="649.1" y2="512" stroke="#AAA2B4" stroke-width="6.9" stroke-linecap="round" stroke-opacity="0.55"/>
  <line x1="568.3" y1="642.5" x2="649.6" y2="576.3" stroke="#AAA2B4" stroke-width="6.9" stroke-linecap="round" stroke-opacity="0.55"/>
  <line x1="578" y1="657.6" x2="693.6" y2="600.3" stroke="#AAA2B4" stroke-width="6.9" stroke-linecap="round" stroke-opacity="0.55"/>
  <line x1="584.7" y1="676.7" x2="724.1" y2="646.8" stroke="#AAA2B4" stroke-width="6.9" stroke-linecap="round" stroke-opacity="0.55"/>
  <rect width="1100" height="1400" filter="url(#grain46)" opacity="0.5"/>
  <rect width="1100" height="1400" fill="url(#vignette46)"/>
</svg>
