<svg xmlns="http://www.w3.org/2000/svg" viewBox="0 0 1000 1250" width="1000" height="1250" preserveAspectRatio="xMidYMid slice" role="img" aria-label="Placeholder artwork">
  <defs>
    <linearGradient id="wall25" gradientTransform="rotate(92 0.5 0.5)">
      <stop offset="0%" stop-color="#F5E6D9"/>
      <stop offset="55%" stop-color="#D98B6A"/>
      <stop offset="100%" stop-color="#7C5A7A"/>
    </linearGradient>
    <filter id="blur25" x="-20%" y="-20%" width="140%" height="140%">
      <feGaussianBlur stdDeviation="7"/>
    </filter>
    <filter id="grain25" x="0" y="0" width="100%" height="100%">
      <feTurbulence type="fractalNoise" baseFrequency="0.9" numOctaves="3" seed="25" result="noise"/>
      <feColorMatrix type="saturate" values="0" in="noise" result="desaturated"/>
      <feComponentTransfer in="desaturated">
        <feFuncA type="linear" slope="0.16"/>
      </feComponentTransfer>
    </filter>
    <radialGradient id="vignette25" cx="50%" cy="45%" r="75%">
      <stop offset="55%" stop-color="#000000" stop-opacity="0"/>
      <stop offset="100%" stop-color="#000000" stop-opacity="0.28"/>
    </radialGradient>
  </defs>
  <rect width="1000" height="1250" fill="url(#wall25)"/>
  <g filter="url(#blur25)" fill="#2C2740" fill-opacity="0.30">
    <path d="M355.6,1361.7 Q560.9,918.8 663.1,475.9" stroke="#2C2740" stroke-opacity="0.33" stroke-width="12.9" fill="none"/>
    <path d="M386.3,1273.1 Q596.4,1276.8 706.3,1097.6 Q496.2,1094 386.3,1273.1 Z"/>
    <path d="M408.8,1208.4 Q447.9,971.5 236.7,857.4 Q197.6,1094.2 408.8,1208.4 Z"/>
    <path d="M431.3,1143.7 Q678.8,1175.6 816.8,967.7 Q569.3,935.8 431.3,1143.7 Z"/>
    <path d="M453.7,1079 Q435.8,842 205,785.3 Q222.9,1022.3 453.7,1079 Z"/>
    <path d="M476.2,1014.3 Q701.8,1087.6 857.6,908.7 Q632,835.4 476.2,1014.3 Z"/>
    <path d="M498.6,949.6 Q475.4,734 286.7,627.1 Q310,842.7 498.6,949.6 Z"/>
    <path d="M521.1,884.9 Q733.1,909.9 841.7,726.1 Q629.7,701.1 521.1,884.9 Z"/>
    <path d="M543.6,820.2 Q535.5,655.3 384.5,588.6 Q392.6,753.5 543.6,820.2 Z"/>
    <path d="M566,755.5 Q765.4,775.7 882.4,613.1 Q683.1,592.9 566,755.5 Z"/>
    <path d="M588.5,690.8 Q556.3,508.3 391.3,423.8 Q423.5,606.3 588.5,690.8 Z"/>
    <path d="M610.9,626.1 Q820.7,678.5 935,495 Q725.3,442.6 610.9,626.1 Z"/>
  </g>
  <rect width="1000" height="1250" filter="url(#grain25)" opacity="0.5"/>
  <rect width="1000" height="1250" fill="url(#vignette25)"/>
</svg>
