<svg xmlns="http://www.w3.org/2000/svg" viewBox="0 0 1000 1250" width="1000" height="1250" preserveAspectRatio="xMidYMid slice" role="img" aria-label="Placeholder artwork">
  <defs>
    <linearGradient id="wall20" gradientTransform="rotate(55 0.5 0.5)">
      <stop offset="0%" stop-color="#F4F5ED"/>
      <stop offset="55%" stop-color="#A8B295"/>
      <stop offset="100%" stop-color="#7C8B6F"/>
    </linearGradient>
    <filter id="blur20" x="-20%" y="-20%" width="140%" height="140%">
      <feGaussianBlur stdDeviation="22.9"/>
    </filter>
    <filter id="grain20" x="0" y="0" width="100%" height="100%">
      <feTurbulence type="fractalNoise" baseFrequency="0.9" numOctaves="3" seed="20" result="noise"/>
      <feColorMatrix type="saturate" values="0" in="noise" result="desaturated"/>
      <feComponentTransfer in="desaturated">
        <feFuncA type="linear" slope="0.16"/>
      </feComponentTransfer>
    </filter>
    <radialGradient id="vignette20" cx="50%" cy="45%" r="75%">
      <stop offset="55%" stop-color="#000000" stop-opacity="0"/>
      <stop offset="100%" stop-color="#000000" stop-opacity="0.28"/>
    </radialGradient>
  </defs>
  <rect width="1000" height="1250" fill="url(#wall20)"/>
  <g filter="url(#blur20)" fill="#40492F" fill-opacity="0.30">
    <path d="M142.9,1296.2 Q870.5,958.9 1233.8,621.6" stroke="#40492F" stroke-opacity="0.23" stroke-width="16" fill="none"/>
    <path d="M252,1228.8 Q337.3,1296.6 427.7,1235.6 Q342.4,1167.8 252,1228.8 Z"/>
    <path d="M369.9,1155.9 Q494.6,1077.5 481.3,930.8 Q356.5,1009.1 369.9,1155.9 Z"/>
    <path d="M487.8,1083 Q612.9,1142.5 727,1064 Q601.9,1004.4 487.8,1083 Z"/>
    <path d="M605.7,1010 Q713.8,956.2 719.2,835.6 Q611.1,889.4 605.7,1010 Z"/>
    <path d="M723.6,937.1 Q856.3,1014.8 994.5,947.4 Q861.8,869.8 723.6,937.1 Z"/>
    <path d="M731.4,1335.1 Q982.6,633.4 839.9,-68.3" stroke="#40492F" stroke-opacity="0.23" stroke-width="9" fill="none"/>
    <path d="M742.3,1194.7 Q1003.9,1282.2 1160.2,1054.9 Q898.6,967.4 742.3,1194.7 Z"/>
    <path d="M750.7,1085.3 Q570.6,934.5 339.4,975.5 Q519.5,1126.3 750.7,1085.3 Z"/>
    <path d="M759.2,975.8 Q971.8,981.7 1090.9,805.5 Q878.3,799.6 759.2,975.8 Z"/>
    <path d="M767.6,866.3 Q609.6,656.3 352.9,712.7 Q511,922.8 767.6,866.3 Z"/>
    <path d="M776.1,756.9 Q1073.4,726 1236.8,475.7 Q939.5,506.5 776.1,756.9 Z"/>
    <path d="M784.6,647.4 Q638,386.5 342.3,340.7 Q488.8,601.6 784.6,647.4 Z"/>
    <path d="M793,537.9 Q1011.3,567.5 1130.4,382.3 Q912.2,352.7 793,537.9 Z"/>
  </g>
  <rect width="1000" height="1250" filter="url(#grain20)" opacity="0.5"/>
  <rect width="1000" height="1250" fill="url(#vignette20)"/>
</svg>
