<svg xmlns="http://www.w3.org/2000/svg" viewBox="0 0 1800 1000" width="1800" height="1000" preserveAspectRatio="xMidYMid slice" role="img" aria-label="Placeholder artwork">
  <defs>
    <linearGradient id="wall27" gradientTransform="rotate(77 0.5 0.5)">
      <stop offset="0%" stop-color="#F8F3ED"/>
      <stop offset="55%" stop-color="#E7D8C3"/>
      <stop offset="100%" stop-color="#CDB79B"/>
    </linearGradient>
    <filter id="blur27" x="-20%" y="-20%" width="140%" height="140%">
      <feGaussianBlur stdDeviation="22.8"/>
    </filter>
    <filter id="grain27" x="0" y="0" width="100%" height="100%">
      <feTurbulence type="fractalNoise" baseFrequency="0.9" numOctaves="3" seed="27" result="noise"/>
      <feColorMatrix type="saturate" values="0" in="noise" result="desaturated"/>
      <feComponentTransfer in="desaturated">
        <feFuncA type="linear" slope="0.16"/>
      </feComponentTransfer>
    </filter>
    <radialGradient id="vignette27" cx="50%" cy="45%" r="75%">
      <stop offset="55%" stop-color="#000000" stop-opacity="0"/>
      <stop offset="100%" stop-color="#000000" stop-opacity="0.28"/>
    </radialGradient>
  </defs>
  <rect width="1800" height="1000" fill="url(#wall27)"/>
  <g filter="url(#blur27)" fill="#8A7358" fill-opacity="0.30">
    <path d="M1064.8,911.5 Q1783.9,384.1 2607,-143.3" stroke="#8A7358" stroke-opacity="0.24" stroke-width="24.6" fill="none"/>
    <path d="M1219,806 Q1471,942.8 1728.7,817.1 Q1476.7,680.2 1219,806 Z"/>
    <path d="M1328.2,731.3 Q1621.5,535.8 1557.1,189.2 Q1263.7,384.7 1328.2,731.3 Z"/>
    <path d="M1437.4,656.7 Q1738.7,934.8 2105.3,751.1 Q1804,472.9 1437.4,656.7 Z"/>
    <path d="M1546.5,582 Q1791.4,327.9 1638.8,9.8 Q1393.8,263.8 1546.5,582 Z"/>
    <path d="M1655.7,507.3 Q1931.8,655.4 2226.6,549.3 Q1950.5,401.2 1655.7,507.3 Z"/>
    <path d="M1764.9,432.7 Q1975.6,220.3 1960.9,-78.5 Q1750.2,133.9 1764.9,432.7 Z"/>
  </g>
  <rect width="1800" height="1000" filter="url(#grain27)" opacity="0.5"/>
  <rect width="1800" height="1000" fill="url(#vignette27)"/>
</svg>
